/* XPM */
static char *result[] = {
/* columns rows colors chars-per-pixel */
"32 32 3 1 ",
"  c black",
". c yellow",
"X c None",
/* pixels */
"XXXXXXXXXXXXX      XXXXXXXXXXXXX",
"XXXXXXXXXX   ......   XXXXXXXXXX",
"XXXXXXXX  ............  XXXXXXXX",
"XXXXXXX ................ XXXXXXX",
"XXXXX  ..................  XXXXX",
"XXXX ...................... XXXX",
"XXXX ...................... XXXX",
"XXX ........................ XXX",
"XX .......................... XX",
"XX .......................... XX",
"X ............................ X",
"X ............................ X",
"X ............................ X",
"X ............................ X",
" .............................. ",
" .............. ............... ",
" .............. ............... ",
" ............. X .............. ",
"X ............ X ............. X",
"X ............ X ............. X",
"X ........... XXX ............ X",
"X ........... XXX ............ X",
"XX .......... XXXX .......... XX",
"XX ......... XXXXX .......... XX",
"XXX ........ XXXXX ......... XXX",
"XXXX ...... XXXXXXX ....... XXXX",
"XXXX ...... XXXXXXX ....... XXXX",
"XXXXX  .... XXXXXXX .....  XXXXX",
"XXXXXXX .. XXXXXXXXX ... XXXXXXX",
"XXXXXXXX   XXXXXXXXX .  XXXXXXXX",
"XXXXXXXXXXXXXXXXXXXXX XXXXXXXXXX",
"XXXXXXXXXXXXXXXXXXXXXXXXXXXXXXXX"
};
