/* XPM */
static char *result[] = {
/* columns rows colors chars-per-pixel */
"32 32 3 1 ",
"  c black",
". c yellow",
"X c None",
/* pixels */
"XXXXXXXXXXXXXX    XXXXXXXXXXXXXX",
"XXXXXXXXXX    ....    XXXXXXXXXX",
"XXXXXXXX  ............  XXXXXXXX",
"XXXXXXX ................ XXXXXXX",
"XXXXX  ..................  XXXXX",
"XXXX ...................... XXXX",
"XXXX ...................... XXXX",
"XXX ........................ XXX",
"XXXX ........................ XX",
"XXXXX  ...................... XX",
"XXXXXXX ...................... X",
"XXXXXXXX  .................... X",
"XXXXXXXXXX ................... X",
"XXXXXXXXXXX  .................. ",
"XXXXXXXXXXXXX ................. ",
"XXXXXXXXXXXXXX  ............... ",
"XXXXXXXXXXXXXXXX .............. ",
"XXXXXXXXXXXXXX  ............... ",
"XXXXXXXXXXXX  ................. ",
"XXXXXXXXXX  .................. X",
"XXXXXXXXX .................... X",
"XXXXXXX  ..................... X",
"XXXXX  ...................... XX",
"XXXX ........................ XX",
"XXX ........................ XXX",
"XXXX ...................... XXXX",
"XXXX ...................... XXXX",
"XXXXX  ..................  XXXXX",
"XXXXXXX ................ XXXXXXX",
"XXXXXXXX  ............  XXXXXXXX",
"XXXXXXXXXX    ....    XXXXXXXXXX",
"XXXXXXXXXXXXXX    XXXXXXXXXXXXXX"
};
