/* XPM */
static char *result[] = {
/* columns rows colors chars-per-pixel */
"32 32 3 1 ",
"  c black",
". c yellow",
"X c None",
/* pixels */
"XXXXXXXXXXXXX      XXXXXXXXXXXXX",
"XXXXXXXXXX   ......   XXXXXXXXXX",
"XXXXXXXX  ............  XXXXXXXX",
"XXXXXXX ................ XXXXXXX",
"XXXXX  ..................  XXXXX",
"XXXX ...................... XXXX",
"XXXX ...................... XXXX",
"XXX ........................ XXX",
"XX .......................... XX",
"XX .......................... XX",
"X ............................ X",
"X ............................ X",
"X ............................ X",
"X ............................ X",
" .............................. ",
" .............. ............... ",
" ............. X .............. ",
" ............. X .............. ",
"X ........... XXX ............ X",
"X ........... XXXX ........... X",
"X .......... XXXXX ........... X",
"X .......... XXXXXX .......... X",
"XX ........ XXXXXXXX ........ XX",
"XX ....... XXXXXXXXX ........ XX",
"XXX ...... XXXXXXXXXX ...... XXX",
"XXXX .... XXXXXXXXXXXX .... XXXX",
"XXXX .... XXXXXXXXXXXX .... XXXX",
"XXXXX  . XXXXXXXXXXXXXX .  XXXXX",
"XXXXXXX XXXXXXXXXXXXXXXX XXXXXXX",
"XXXXXXXXXXXXXXXXXXXXXXXXXXXXXXXX",
"XXXXXXXXXXXXXXXXXXXXXXXXXXXXXXXX",
"XXXXXXXXXXXXXXXXXXXXXXXXXXXXXXXX"
};
