/* XPM */
static char *result[] = {
/* columns rows colors chars-per-pixel */
"32 32 3 1 ",
"  c black",
". c yellow",
"X c None",
/* pixels */
"XXXXXXXXXXXXXXXXXXXXXXXXXXXXXXXX",
"XXXXXXXXXXXXXXXXXXXXXXXXXXXXXXXX",
"XXXXXXXXXXXXXXXXXXXXXXXXXXXXXXXX",
"XXXXXXX XXXXXXXXXXXXXXXX XXXXXXX",
"XXXXX  . XXXXXXXXXXXXXX .  XXXXX",
"XXXX .... XXXXXXXXXXXX .... XXXX",
"XXXX .... XXXXXXXXXXXX .... XXXX",
"XXX ...... XXXXXXXXXX ...... XXX",
"XX ....... XXXXXXXXX ........ XX",
"XX ........ XXXXXXXX ........ XX",
"X .......... XXXXXX .......... X",
"X .......... XXXXX ........... X",
"X ........... XXXX ........... X",
"X ........... XXX ............ X",
" ............. X .............. ",
" ............. X .............. ",
" .............. ............... ",
" .............................. ",
"X ............................ X",
"X ............................ X",
"X ............................ X",
"X ............................ X",
"XX .......................... XX",
"XX .......................... XX",
"XXX ........................ XXX",
"XXXX ...................... XXXX",
"XXXX ...................... XXXX",
"XXXXX  ..................  XXXXX",
"XXXXXXX ................ XXXXXXX",
"XXXXXXXX  ............  XXXXXXXX",
"XXXXXXXXXX   ......   XXXXXXXXXX",
"XXXXXXXXXXXXX      XXXXXXXXXXXXX"
};
