/* XPM */
static char *result[] = {
/* columns rows colors chars-per-pixel */
"32 32 3 1 ",
"  c black",
". c yellow",
"X c None",
/* pixels */
"XXXXXXXXXXXXXXXXXXXXXXXXXXXXXXXX",
"XXXXXXXXXXXXXXXXXXXXX XXXXXXXXXX",
"XXXXXXXX   XXXXXXXXX .  XXXXXXXX",
"XXXXXXX .. XXXXXXXXX ... XXXXXXX",
"XXXXX  .... XXXXXXX .....  XXXXX",
"XXXX ...... XXXXXXX ....... XXXX",
"XXXX ...... XXXXXXX ....... XXXX",
"XXX ........ XXXXX ......... XXX",
"XX ......... XXXXX .......... XX",
"XX .......... XXXX .......... XX",
"X ........... XXX ............ X",
"X ........... XXX ............ X",
"X ............ X ............. X",
"X ............ X ............. X",
" ............. X .............. ",
" .............. ............... ",
" .............. ............... ",
" .............................. ",
"X ............................ X",
"X ............................ X",
"X ............................ X",
"X ............................ X",
"XX .......................... XX",
"XX .......................... XX",
"XXX ........................ XXX",
"XXXX ...................... XXXX",
"XXXX ...................... XXXX",
"XXXXX  ..................  XXXXX",
"XXXXXXX ................ XXXXXXX",
"XXXXXXXX  ............  XXXXXXXX",
"XXXXXXXXXX   ......   XXXXXXXXXX",
"XXXXXXXXXXXXX      XXXXXXXXXXXXX"
};
