/* XPM */
static char *result[] = {
/* columns rows colors chars-per-pixel */
"32 32 4 1 ",
"  c #0C062A",
". c #BCB9DF",
"X c #F0F1FE",
"o c None",
/* pixels */
"oooooooooooooooooooooooooooooooo",
"oooo                        oooo",
"oooo                        oooo",
"ooo .XXXXXXXXXXXXXXXXXXXXXX. ooo",
"o  .XXXXXXXXXXXXXXXXXXXXXXXX.  o",
"o  .XXXXXXXXXXXXXXXXXXXXXXXX.  o",
"o  .XXXXXXXXXXXXXXXXXXXXXXXX.  o",
"o  XXXXXXXXXXXXXXXXXXXXXXXXXX  o",
"o  XX     XXX XXXX     .XXXX.  o",
"o  XX     XXX XXXX     .XXXX.  o",
"o  X XX   XXX XXX X   X .....  o",
" XXX      X  XXXX       ....... ",
" XXX      X  XXXX       ....... ",
" ..XXXXXXXX  . XXXXXXX..... ... ",
" ... XXXXXXXXXXXXXXXXXX.    ... ",
" ... XXXXXXXXXXXXXXXXXX.    ... ",
" ... XXXXXXXXXXXXXXXXXX.    ... ",
" ...                        ... ",
"o  . XXXX XXX XXX XXX XX    .  o",
"o  . XXXX XXX XXX XXX XX    .  o",
"o  . XXXX XXX XXX XXX XX    .  o",
"o  .                        .  o",
"o  .                        .  o",
"o  . XXXX XXX XXX XXX XX   ..  o",
"o  . XXXX XXX XXX XXX   .....  o",
"o  . XXXX XXX XXX XXX   .....  o",
"o  ..                 .....  ooo",
"o  ..                 .....  ooo",
"ooo ...XXXXXXXXXXXX....    ooooo",
"ooo ...XXXXXXXXXXXX....    ooooo",
"oooo                   ooooooooo",
"oooooooooooooooooooooooooooooooo"
};
